<?xml version="1.0" encoding="UTF-8"?>
<svg width="600px" height="412px" viewBox="0 0 600 412" version="1.1" xmlns="http://www.w3.org/2000/svg" xmlns:xlink="http://www.w3.org/1999/xlink">
    <!-- Generator: Sketch 50.2 (55047) - http://www.bohemiancoding.com/sketch -->
    <title>France Circuit</title>
    <desc>Created with Sketch.</desc>
    <defs></defs>
    <g id="France-Circuit" stroke="none" stroke-width="1" fill="none" fill-rule="evenodd">
        <path d="M344.402411,252.148134 C302.363141,220.13607 261.326705,188.924988 219.135857,156.050328 C216.001481,153.60807 209.223563,150.313044 205.343015,149.94525 C194.903033,148.956024 184.450955,150.576888 173.800427,150.171294 C168.623339,149.973978 163.077323,148.96245 158.537543,146.666478 C149.962613,142.330062 142.602953,135.764958 134.456675,130.273374 C129.186599,126.720552 123.848105,123.160548 118.176593,120.324414 C111.185861,116.829048 103.315145,115.020318 96.4699435,111.280008 C88.6929715,107.03091 79.0551055,102.682776 74.3108275,96.3565683 C71.8198075,93.0350823 75.6311815,86.7659523 74.7629155,82.3376823 C74.1240955,79.0785663 74.3391775,75.4482543 68.8838815,73.4059203 C63.4289635,71.3639643 53.8466635,73.9154643 45.4815235,72.8408103 C43.7166415,72.6140103 42.7716415,69.6353703 42.9942835,68.5444623 C44.2787275,62.2488723 46.2110635,56.5399383 48.9863395,50.6816943 C50.2809895,47.9476203 52.7618035,45.1349223 55.3174615,43.8984843 C57.4346395,42.8737263 60.6612475,43.0808703 63.0052255,43.8984843 C67.1431915,45.3420663 71.2977895,47.8531203 74.7629155,50.6816943 C78.6842875,53.8829763 83.5336495,57.8515983 85.5034075,62.4393843 C88.7281255,69.9513783 91.9936675,83.6618163 98.8441615,86.2945863 C171.790223,114.329712 244.002587,141.907458 317.607881,169.16466 C320.736209,170.32323 322.445525,177.048606 324.617513,179.453064 C326.666273,181.721442 329.625635,183.365742 332.531699,183.636012 C336.107579,183.968652 339.317933,182.50617 342.593681,180.583662 C346.252343,178.435866 349.119473,174.736002 352.881707,171.538878 C355.742411,169.10796 358.216421,166.78893 362.717645,167.129886 C367.305809,167.477268 372.093179,176.851668 374.475713,179.113998 C381.875441,186.141018 389.302007,191.678718 399.913223,198.106986 C404.180843,200.692884 408.683201,203.064456 413.366621,204.777552 C454.378865,219.778104 493.196819,234.408594 534.111161,249.208806 C537.995111,250.613832 544.072217,255.02358 546.886427,258.027168 C552.241931,263.743284 559.790591,273.934164 560.113781,279.507774 C561.452279,302.576358 561.816671,321.762126 560.905313,344.854524 C560.694767,350.185458 556.711781,356.622042 553.104149,360.004008 C549.476105,363.40563 543.487451,366.190734 538.294109,366.33513 C532.634315,366.492378 525.874541,364.77021 521.109473,361.812738 C517.131401,359.34402 513.401675,354.304524 512.969243,350.055048 C512.497121,345.41094 515.470469,339.632454 518.396189,335.131608 C525.268607,324.55857 535.247429,315.499422 541.459481,304.83264 C543.236459,301.781802 544.286165,297.597342 544.286165,293.979126 C544.286165,290.210844 542.665679,285.311208 541.459481,282.673524 C540.253661,280.035462 537.465533,278.576004 535.128359,278.151132 C532.491053,277.67145 529.239119,278.887854 526.536419,279.959862 C520.496357,282.355248 515.072435,286.647438 508.899695,288.552558 C502.862279,290.415342 496.219307,291.410616 489.905951,291.265464 C483.104597,291.10935 475.858715,290.111052 469.555943,287.648004 C462.744005,284.98575 456.428759,280.396074 450.562199,275.890314 C446.027711,272.407044 443.075909,266.40516 438.352421,263.680158 C435.237323,261.882768 430.577717,261.587928 427.046819,262.323138 C423.341663,263.095014 420.410651,264.760482 417.210503,267.071574 C414.984083,268.679586 411.825137,271.674102 411.218825,274.194228 C409.865963,279.813954 410.890721,285.91941 410.766359,291.830952 C410.674883,296.304582 407.272883,299.168688 404.096171,296.805432 C385.335275,282.851562 364.790219,267.672972 344.402411,252.148134 Z" id="Circuit" stroke="#0C1F23" stroke-width="3"></path>
        <g id="circuit/start" transform="translate(317.914025, 251.960627) rotate(37.000000) translate(-317.914025, -251.960627) translate(307.914025, 246.960627)" fill="#0C1523">
            <polygon id="Rectangle-5" transform="translate(4.156854, 5.156854) rotate(-45.000000) translate(-4.156854, -5.156854) " points="1.21751442 2.21751442 7.09619408 3.28143575 2.28143575 8.09619408"></polygon>
            <g id="Group" stroke-width="1" transform="translate(14.000000, 0.000000)">
                <rect id="Rectangle-27" x="0" y="0" width="2" height="2"></rect>
                <rect id="Rectangle-27-Copy" x="2" y="2" width="2" height="2"></rect>
                <rect id="Rectangle-27-Copy-2" x="0" y="4" width="2" height="2"></rect>
                <rect id="Rectangle-27-Copy-4" x="0" y="8" width="2" height="2"></rect>
                <rect id="Rectangle-27-Copy-3" x="2" y="6" width="2" height="2"></rect>
                <rect id="Rectangle-27" x="4" y="0" width="2" height="2"></rect>
                <rect id="Rectangle-27-Copy-2" x="4" y="4" width="2" height="2"></rect>
                <rect id="Rectangle-27-Copy-5" x="4" y="8" width="2" height="2"></rect>
            </g>
        </g>
    </g>
</svg>